<?xml version="1.0" encoding="utf-8"?>
<!-- Generator: Adobe Illustrator 22.0.1, SVG Export Plug-In . SVG Version: 6.00 Build 0)  -->
<svg version="1.1" xmlns="http://www.w3.org/2000/svg" xmlns:xlink="http://www.w3.org/1999/xlink" x="0px" y="0px"
	 viewBox="0 0 113.4 69.8" style="enable-background:new 0 0 113.4 69.8;" xml:space="preserve">
<style type="text/css">
	.st0{fill:#414042;}
	.st1{fill:#FFFFFF;}
	.st2{fill:#414042;stroke:#414042;stroke-width:0.1417;}
	.st3{fill:#2283AC;}
	.st4{fill:#2791BE;}
	.st5{fill:#2B9ECF;}
	.st6{fill:#2DACE3;}
	.st7{fill:url(#SVGID_1_);}
	.st8{fill:url(#SVGID_2_);}
	.st9{fill:url(#SVGID_3_);}
	.st10{fill:url(#SVGID_4_);}
	.st11{fill:#FFFFFF;stroke:#FFFFFF;stroke-width:0.1417;}
	.st12{fill:#186E92;}
	.st13{fill:#E0E0E0;}
	.st14{fill:#2997C7;}
	.st15{fill:#E1EAF2;}
	.st16{fill:url(#SVGID_5_);}
	.st17{fill:url(#SVGID_6_);}
	.st18{fill:url(#SVGID_7_);}
	.st19{fill:url(#SVGID_8_);}
	.st20{clip-path:url(#SVGID_10_);}
	.st21{clip-path:url(#SVGID_12_);}
	.st22{clip-path:url(#SVGID_14_);}
	.st23{fill:none;stroke:#2283AC;stroke-width:2.8346;stroke-linecap:round;stroke-miterlimit:10;}
	.st24{fill:none;stroke:#2B9ECF;stroke-width:2.8346;stroke-linecap:round;stroke-miterlimit:10;}
	.st25{fill:none;stroke:#2DACE3;stroke-width:2.8346;stroke-linecap:round;stroke-miterlimit:10;}
	.st26{fill:none;stroke:url(#SVGID_15_);stroke-width:2.8346;stroke-linecap:round;stroke-miterlimit:10;}
	.st27{fill:none;stroke:url(#SVGID_16_);stroke-width:2.8346;stroke-linecap:round;stroke-miterlimit:10;}
	.st28{fill:none;stroke:url(#SVGID_17_);stroke-width:2.8346;stroke-linecap:round;stroke-miterlimit:10;}
	.st29{fill:url(#SVGID_18_);}
	.st30{fill:url(#SVGID_19_);}
	.st31{fill:url(#SVGID_20_);}
	.st32{fill:url(#SVGID_21_);}
</style>
<g id="Layer_1">
	<g>
		<path class="st3" d="M51.9,54.5H37.7c-0.6,0-1.1-0.5-1.1-1.1s0.5-1.1,1.1-1.1h14.2c0.6,0,1.1,0.5,1.1,1.1S52.5,54.5,51.9,54.5z"/>
		<path class="st6" d="M109.5,42.5H89c-0.6,0-1.1-0.5-1.1-1.1s0.5-1.1,1.1-1.1h20.5c0.6,0,1.1,0.5,1.1,1.1S110.1,42.5,109.5,42.5z"
			/>
		<path class="st6" d="M99.2,67.3c-0.6,0-1.1-0.5-1.1-1.1V42.1c0-0.6,0.5-1.1,1.1-1.1c0.6,0,1.1,0.5,1.1,1.1v24.1
			C100.3,66.8,99.8,67.3,99.2,67.3z"/>
		<path class="st3" d="M53.9,67.3H39c-1.4,0-2.6-1.2-2.6-2.6V42c0-1.4,1.2-2.6,2.6-2.6h14.8c0.6,0,1.1,0.5,1.1,1.1s-0.5,1.1-1.1,1.1
			H39c-0.2,0-0.4,0.2-0.4,0.4v22.7c0,0.2,0.2,0.4,0.4,0.4h14.8c0.6,0,1.1,0.5,1.1,1.1S54.5,67.3,53.9,67.3z"/>
		<path class="st5" d="M87.3,53.2c0-7.8-6.3-14.1-14.1-14.1c-7.8,0-14.1,6.3-14.1,14.1c0,7.8,6.3,14.1,14.1,14.1
			c1.4,0,2.7-0.2,4-0.6c-0.4-0.5-0.7-1.1-0.7-1.8c0-0.1,0-0.2,0-0.3c-1.1,0.3-2.2,0.5-3.3,0.5c-6.6,0-11.9-5.3-11.9-11.9
			c0-6.6,5.3-11.9,11.9-11.9s11.9,5.3,11.9,11.9c0,3.1-1.2,5.8-3.1,7.9c-0.3-0.1-0.7-0.2-1-0.2c-1.5,0-2.6,1.2-2.6,2.6
			c0,1.5,1.2,2.6,2.6,2.6c1.5,0,2.6-1.2,2.6-2.6c0-0.3-0.1-0.5-0.1-0.8C85.8,60.3,87.3,56.9,87.3,53.2z"/>
		<linearGradient id="SVGID_1_" gradientUnits="userSpaceOnUse" x1="2.8346" y1="23.9411" x2="110.0838" y2="23.9411">
			<stop  offset="0" style="stop-color:#1A6E92"/>
			<stop  offset="1" style="stop-color:#2DACE3"/>
		</linearGradient>
		<path class="st7" d="M107.3,22c-0.1,0-8.5,1.1-17-2c-4.4-1.6-8.4-4.2-12.6-6.9c-7.9-5.2-16-10.5-28.7-10.5c-19.5,0-32,16-32,24.4
			c0,0.6,0.5,1.1,1.1,1.1s1.1-0.5,1.1-1.1c0-7.6,11.6-22.3,29.8-22.3c12,0,19.9,5.1,27.5,10.1c4.3,2.8,8.3,5.5,13,7.2
			c6,2.2,11.9,2.4,15.2,2.3c-4.6,4.4-13.9,10.7-30.1,10.7c0.8-1.5,2.6-4.6,5.1-6.2c0.5,0.6,1.2,1,2.1,1c1.5,0,2.6-1.2,2.6-2.6
			c0-1.5-1.2-2.6-2.6-2.6c-1.2,0-2.3,0.9-2.5,2c-4.1,2.2-6.6,7.5-7,8.4c-2.4-0.1-4.9-0.3-7.6-0.7c-2.9-0.4-6.1-1.2-9.4-2.1
			c-0.5-0.1-1-0.3-1.5-0.4c1.1-2.3,4.5-8.4,9.3-10.6c0.5,0.8,1.3,1.3,2.3,1.3c1.5,0,2.6-1.2,2.6-2.6c0-1.5-1.2-2.6-2.6-2.6
			c-1.1,0-2.1,0.7-2.4,1.7C56.7,21.2,52.7,29,51.7,31.2c-5.5-1.4-11.6-2.6-18.3-2.4c1.6-3,5.4-9.6,10.9-12c0.5,0.8,1.3,1.3,2.3,1.3
			c1.5,0,2.6-1.2,2.6-2.6s-1.2-2.6-2.6-2.6c-1.1,0-2.1,0.7-2.5,1.7c-7.3,2.7-12,11.9-13.1,14.4c-1.3,0.1-2.6,0.2-4,0.4
			C14.8,31.1,6.9,35.8,2.9,43.8c-0.3,0.5-0.1,1.2,0.5,1.5c0.2,0.1,0.3,0.1,0.5,0.1c0.4,0,0.8-0.2,1-0.6c3.7-7.3,11-11.6,22.3-13.3
			c10.7-1.6,19.7,0.7,27.6,2.8c3.4,0.9,6.6,1.7,9.6,2.1c26.5,3.9,39.5-7.5,43.9-12.6l1.8-2.1L107.3,22z"/>
		<g>
			<path class="st12" d="M29.1,62.1c-2.2,1.9-5,3-7.9,3c-6.6,0-11.9-5.3-11.9-11.9c0-6.6,5.3-11.9,11.9-11.9c1.3,0,2.5,0.2,3.7,0.6
				c0-0.5,0.2-1,0.5-1.5c0.1-0.2,0.3-0.3,0.5-0.5c-1.5-0.5-3.1-0.8-4.7-0.8c-7.8,0-14.1,6.3-14.1,14.1c0,7.8,6.3,14.1,14.1,14.1
				c3.4,0,6.7-1.3,9.3-3.5c0.4-0.4,0.5-1.1,0.1-1.5C30.2,61.8,29.5,61.7,29.1,62.1z"/>
			<path class="st12" d="M30.6,40.7c-1.2-0.9-2.8-0.6-3.7,0.5s-0.6,2.8,0.5,3.7c1.2,0.9,2.8,0.6,3.7-0.5S31.8,41.6,30.6,40.7z"/>
		</g>
	</g>
</g>
<g id="Layer_2">
</g>
</svg>
